<svg width="50" height="12" xmlns="http://www.w3.org/2000/svg" xmlns:xlink="http://www.w3.org/1999/xlink"><use xlink:href="#path0_stroke" transform="translate(2 3)" fill="#197DF5"/><defs><path id="path0_stroke" d="M6 6.5L4.898 7.517 6 8.711l1.102-1.194L6 6.5zM12 0l1.145-.969-1.096-1.295-1.151 1.247L12 0zm5.5 6.5l-1.145.969 1.096 1.295 1.151-1.247L17.5 6.5zm6-6.5l1.102-1.017L23.5-2.211l-1.102 1.194L23.5 0zm6 6.5l-1.102 1.017 1.15 1.247 1.097-1.295L29.5 6.5zM35 0l1.102-1.017-1.15-1.247L33.854-.97 35 0zm6 6.5l-1.102 1.017 1.106 1.199 1.102-1.202L41 6.5zM-1.102 1.017l6 6.5 2.204-2.034-6-6.5-2.204 2.034zm8.204 6.5l6-6.5-2.204-2.034-6 6.5 2.204 2.034zM10.855.97l5.5 6.5 2.29-1.938-5.5-6.5L10.855.97zm7.747 6.548l6-6.5-2.204-2.034-6 6.5 2.204 2.034zm3.796-6.5l6 6.5 2.204-2.034-6-6.5-2.204 2.034zm8.247 6.452l5.5-6.5-2.29-1.938-5.5 6.5 2.29 1.938zm3.253-6.452l6 6.5 2.204-2.034-6-6.5-2.204 2.034zm8.208 6.497l5.5-6-2.212-2.028-5.5 6 2.212 2.028z"/></defs></svg>