<svg width="50" height="12" viewBox="0 0 50 12" version="1.1" xmlns="http://www.w3.org/2000/svg" xmlns:xlink="http://www.w3.org/1999/xlink">
<title>Vector 2.6</title>
<desc>Created using Figma</desc>
<g id="Canvas" transform="translate(1677 -2667)">
<g id="Vector 2.6">
<g id="Vector 2.6">
<use xlink:href="#path0_stroke" transform="translate(-1675 2670)" fill="#197DF5"/>
</g>
</g>
</g>
<defs>
<path id="path0_stroke" d="M 6 6.5L 4.89779 7.51742L 6 8.71148L 7.10221 7.51742L 6 6.5ZM 12 0L 13.1451 -0.968913L 12.0489 -2.26443L 10.8978 -1.01742L 12 0ZM 17.5 6.5L 16.3549 7.46891L 17.4511 8.76443L 18.6022 7.51742L 17.5 6.5ZM 23.5 0L 24.6022 -1.01742L 23.5 -2.21148L 22.3978 -1.01742L 23.5 0ZM 29.5 6.5L 28.3978 7.51742L 29.5489 8.76443L 30.6451 7.46891L 29.5 6.5ZM 35 0L 36.1022 -1.01742L 34.9511 -2.26443L 33.8549 -0.968913L 35 0ZM 41 6.5L 39.8978 7.51742L 41.0038 8.71564L 42.1057 7.51359L 41 6.5ZM -1.10221 1.01742L 4.89779 7.51742L 7.10221 5.48258L 1.10221 -1.01742L -1.10221 1.01742ZM 7.10221 7.51742L 13.1022 1.01742L 10.8978 -1.01742L 4.89779 5.48258L 7.10221 7.51742ZM 10.8549 0.968913L 16.3549 7.46891L 18.6451 5.53109L 13.1451 -0.968913L 10.8549 0.968913ZM 18.6022 7.51742L 24.6022 1.01742L 22.3978 -1.01742L 16.3978 5.48258L 18.6022 7.51742ZM 22.3978 1.01742L 28.3978 7.51742L 30.6022 5.48258L 24.6022 -1.01742L 22.3978 1.01742ZM 30.6451 7.46891L 36.1451 0.968913L 33.8549 -0.968913L 28.3549 5.53109L 30.6451 7.46891ZM 33.8978 1.01742L 39.8978 7.51742L 42.1022 5.48258L 36.1022 -1.01742L 33.8978 1.01742ZM 42.1057 7.51359L 47.6057 1.51359L 45.3943 -0.513587L 39.8943 5.48641L 42.1057 7.51359Z"/>
</defs>
</svg>
