<svg width="25" height="7" viewBox="0 0 25 7" version="1.1" xmlns="http://www.w3.org/2000/svg" xmlns:xlink="http://www.w3.org/1999/xlink">
<title>Vector 2.6</title>
<desc>Created using Figma</desc>
<g id="Canvas" transform="translate(1483 -2669)">
<g id="Vector 2.6">
<g id="Vector 2.6">
<use xlink:href="#path0_stroke" transform="matrix(1 0 0 -1 -1482 2674)" fill="#197DF5"/>
</g>
</g>
</g>
<defs>
<path id="path0_stroke" d="M 2.96774 3L 2.25682 3.70327L 2.96774 4.42192L 3.67866 3.70327L 2.96774 3ZM 5.93548 0L 6.67626 -0.671747L 5.96706 -1.45384L 5.22457 -0.703274L 5.93548 0ZM 8.65591 3L 7.91513 3.67175L 8.62434 4.45384L 9.36683 3.70327L 8.65591 3ZM 11.6237 0L 12.3346 -0.703274L 11.6237 -1.42192L 10.9127 -0.703274L 11.6237 0ZM 14.5914 3L 13.8805 3.70327L 14.623 4.45384L 15.3322 3.67175L 14.5914 3ZM 17.3118 0L 18.0227 -0.703274L 17.2803 -1.45384L 16.571 -0.671747L 17.3118 0ZM 20.2796 3L 19.5687 3.70327L 20.2821 4.42443L 20.9929 3.70079L 20.2796 3ZM -0.710919 0.703274L 2.25682 3.70327L 3.67866 2.29673L 0.710919 -0.703274L -0.710919 0.703274ZM 3.67866 3.70327L 6.6464 0.703274L 5.22457 -0.703274L 2.25682 2.29673L 3.67866 3.70327ZM 5.1947 0.671747L 7.91513 3.67175L 9.39669 2.32825L 6.67626 -0.671747L 5.1947 0.671747ZM 9.36683 3.70327L 12.3346 0.703274L 10.9127 -0.703274L 7.945 2.29673L 9.36683 3.70327ZM 10.9127 0.703274L 13.8805 3.70327L 15.3023 2.29673L 12.3346 -0.703274L 10.9127 0.703274ZM 15.3322 3.67175L 18.0526 0.671747L 16.571 -0.671747L 13.8506 2.32825L 15.3322 3.67175ZM 16.6009 0.703274L 19.5687 3.70327L 20.9905 2.29673L 18.0227 -0.703274L 16.6009 0.703274ZM 20.9929 3.70079L 23.7134 0.931562L 22.2866 -0.470024L 19.5662 2.29921L 20.9929 3.70079Z"/>
</defs>
</svg>
