<svg width="25" height="7" xmlns="http://www.w3.org/2000/svg" xmlns:xlink="http://www.w3.org/1999/xlink"><use xlink:href="#path0_stroke" transform="matrix(1 0 0 -1 1 5)" fill="#197DF5"/><defs><path id="path0_stroke" d="M2.968 3l-.711.703.71.719.712-.719L2.968 3zm2.967-3l.741-.672-.709-.782-.742.75.71.704zm2.72 3l-.74.672.71.782.742-.75L8.656 3zm2.969-3l.71-.703-.71-.719-.711.719.71.703zm2.967 3l-.71.703.742.75.71-.781L14.59 3zm2.72-3l.712-.703-.743-.75-.709.781.74.672zm2.969 3l-.711.703.713.721.71-.723L20.28 3zM-.71.703l2.967 3 1.422-1.406-2.968-3L-.711.703zm4.389 3l2.967-3L5.225-.703l-2.968 3 1.422 1.406zM5.195.672l2.72 3 1.482-1.344-2.72-3L5.194.672zm4.172 3.031l2.968-3-1.422-1.406-2.968 3 1.422 1.406zm1.546-3l2.967 3 1.422-1.406-2.967-3L10.913.703zm4.42 2.969l2.72-3L16.57-.672l-2.72 3 1.481 1.344zM16.6.703l2.968 3 1.422-1.406-2.968-3L16.6.703zm4.392 2.998l2.72-2.77L22.287-.47l-2.72 2.77 1.426 1.4z"/></defs></svg>