<svg width="171" height="50" xmlns="http://www.w3.org/2000/svg"><g fill="none"><path d="M109.5 11C102 11 96 17 96 24.5S102 38 109.5 38 123 32 123 24.5c0-7.333-6-13.5-13.5-13.5zm0 21.5c-4.333 0-8-3.5-8-8s3.5-8 8-8c4.333 0 8 3.5 8 8s-3.5 8-8 8zm30.192-14.722c-3.79 0-6.923 3.229-6.923 7.137V38H127V12h5.77v4.078c1.648-2.549 4.45-4.078 7.417-4.078H142v5.778h-2.308zM80.789 12l4.394 18.013L90.085 12H96l-7.606 26h-5.746l-4.563-18.183L73.352 38h-5.746L60 12h5.915l4.902 18.013L75.21 12zm78.925 12.273c4.457-2.343 7.029-6.863 7.029-11.885h-6c0 4.352-3.6 7.7-7.886 7.7H152V0h-6v38h6V25.947h.686c.685 0 1.2.335 1.714.837L162.8 38h7.2l-10.286-13.727z" fill="#494949"/><path d="M46.425 10.894c-6.37 0-11.23 4.232-13.24 11.004-3.017-4.571-5.196-9.65-6.705-14.898h-6.87v17.945c0 3.555-2.85 6.433-6.369 6.433-3.52 0-6.368-2.878-6.368-6.433V7H0v17.945c0 7.28 5.866 13.374 13.24 13.374 7.375 0 13.24-5.925 13.24-13.374v-3.047c1.341 2.878 3.017 5.586 4.86 8.126L27.15 50h7.04l3.017-14.39c2.681 1.862 5.866 2.709 9.218 2.878C53.966 38.488 60 32.394 60 24.776c0-7.619-6.034-13.882-13.575-13.882zm0 20.653c-2.682 0-5.364-1.185-7.71-3.047l.503-2.709v-.169c.503-2.878 2.179-7.787 7.039-7.787 3.687-.17 6.871 2.878 6.871 6.602.168 3.724-2.849 6.941-6.536 6.941 0 .17-.167.17-.167.17z" fill="#6FDA44"/><path d="M168 13.5c0-.883.6-1.472 1.5-1.472s1.5.589 1.5 1.472-.6 1.472-1.5 1.472c-.75 0-1.5-.589-1.5-1.472zm2.85 0c.15-.736-.3-1.472-1.05-1.472-.75-.147-1.5.295-1.5 1.03v.442c-.15.736.3 1.472 1.05 1.472.75.147 1.5-.295 1.5-1.03V13.5zm-1.95-.736h.75c.3 0 .6.147.6.442 0 .147-.15.441-.3.441l.45.589h-.3l-.3-.589h-.3v.589h-.3l-.3-1.472zm.75.736c.15 0 .3-.147.3-.294 0-.148-.15-.295-.3-.295h-.3v.442l.3.147z" fill="#494949"/></g></svg>