<?xml version="1.0" encoding="UTF-8"?>
<svg width="171px" height="50px" viewBox="0 0 171 50" version="1.1" xmlns="http://www.w3.org/2000/svg" xmlns:xlink="http://www.w3.org/1999/xlink">
    <!-- Generator: Sketch 49.3 (51167) - http://www.bohemiancoding.com/sketch -->
    <title>download</title>
    <desc>Created with Sketch.</desc>
    <defs></defs>
    <g id="Home-Page" stroke="none" stroke-width="1" fill="none" fill-rule="evenodd">
        <g id="Desktop-HD" transform="translate(-1197.000000, -4093.000000)" fill-rule="nonzero">
            <g id="download" transform="translate(1197.000000, 4093.000000)">
                <path d="M109.5,11 C102,11 96,17 96,24.5 C96,32 102,38 109.5,38 C117,38 123,32 123,24.5 C123,24.5 123,24.5 123,24.5 C123,17.1666667 117,11 109.5,11 Z M109.5,32.5 C105.166667,32.5 101.5,29 101.5,24.5 C101.5,20 105,16.5 109.5,16.5 C113.833333,16.5 117.5,20 117.5,24.5 C117.5,29 114,32.5 109.5,32.5 Z" id="Shape" fill="#494949"></path>
                <path d="M139.692308,17.7777778 C135.901099,17.7777778 132.769231,21.0065359 132.769231,24.9150327 L132.769231,38 L127,38 L127,12 L132.769231,12 L132.769231,16.0784314 C134.417582,13.5294118 137.21978,12 140.186813,12 L142,12 L142,17.7777778 L139.692308,17.7777778 Z" id="Shape" fill="#494949"></path>
                <polygon id="Shape" fill="#494949" points="80.7887324 12 85.1830986 30.0130719 90.084507 12 96 12 88.3943662 38 82.6478873 38 78.084507 19.8169935 73.3521127 38 67.6056338 38 60 12 65.915493 12 70.8169014 30.0130719 75.2112676 12"></polygon>
                <path d="M159.714286,24.2731278 C164.171429,21.9295154 166.742857,17.4096916 166.742857,12.3876652 L160.742857,12.3876652 C160.742857,16.7400881 157.142857,20.0881057 152.857143,20.0881057 L152,20.0881057 L152,0 L146,0 L146,38 L152,38 L152,25.9471366 L152.685714,25.9471366 C153.371429,25.9471366 153.885714,26.2819383 154.4,26.784141 L162.8,38 L170,38 L159.714286,24.2731278 Z" id="Shape" fill="#494949"></path>
                <path d="M46.424581,10.8937008 C40.0558659,10.8937008 35.1955307,15.1259843 33.1843575,21.8976378 C30.1675978,17.3267717 27.9888268,12.2480315 26.4804469,7 L19.6089385,7 L19.6089385,24.9448819 C19.6089385,28.5 16.7597765,31.3779528 13.2402235,31.3779528 C9.72067039,31.3779528 6.87150838,28.5 6.87150838,24.9448819 L6.87150838,7 L0,7 L0,24.9448819 C0,32.2244094 5.86592179,38.3188976 13.2402235,38.3188976 C20.6145251,38.3188976 26.4804469,32.3937008 26.4804469,24.9448819 L26.4804469,21.8976378 C27.8212291,24.7755906 29.4972067,27.484252 31.3407821,30.023622 L27.150838,50 L34.1899441,50 L37.2067039,35.6102362 C39.8882682,37.4724409 43.0726257,38.3188976 46.424581,38.488189 C53.9664804,38.488189 60,32.3937008 60,24.7755906 C60,17.1574803 53.9664804,10.8937008 46.424581,10.8937008 Z M46.424581,31.5472441 C43.7430168,31.5472441 41.0614525,30.3622047 38.7150838,28.5 L39.2178771,25.7913386 L39.2178771,25.6220472 C39.7206704,22.7440945 41.396648,17.8346457 46.2569832,17.8346457 C49.9441341,17.6653543 53.1284916,20.7125984 53.1284916,24.4370079 C53.2960894,28.1614173 50.2793296,31.3779528 46.5921788,31.3779528 C46.5921788,31.5472441 46.424581,31.5472441 46.424581,31.5472441 Z" id="Shape" fill="#6FDA44"></path>
                <path d="M168,13.5 C168,12.61692 168.6,12.0281999 169.5,12.0281999 C170.4,12.0281999 171,12.61692 171,13.5 C171,14.38308 170.4,14.9718001 169.5,14.9718001 C168.75,14.9718001 168,14.38308 168,13.5 Z M170.85,13.5 C171,12.7641 170.55,12.0281999 169.8,12.0281999 C169.05,11.8810199 168.3,12.32256 168.3,13.05846 C168.3,13.20564 168.3,13.35282 168.3,13.5 C168.15,14.2359 168.6,14.9718001 169.35,14.9718001 C170.1,15.1189801 170.85,14.67744 170.85,13.94154 C170.85,13.79436 170.85,13.64718 170.85,13.5 Z M168.9,12.7641 L169.65,12.7641 C169.95,12.7641 170.25,12.91128 170.25,13.20564 C170.25,13.35282 170.1,13.64718 169.95,13.64718 L170.4,14.2359 L170.1,14.2359 L169.8,13.64718 L169.5,13.64718 L169.5,14.2359 L169.2,14.2359 L168.9,12.7641 Z M169.65,13.5 C169.8,13.5 169.95,13.35282 169.95,13.20564 C169.95,13.05846 169.8,12.91128 169.65,12.91128 L169.35,12.91128 L169.35,13.35282 L169.65,13.5 Z" id="Shape" fill="#494949"></path>
            </g>
        </g>
    </g>
</svg>